<svg width="202" height="44" viewBox="0 0 202 44" fill="none" xmlns="http://www.w3.org/2000/svg">
<path fill-rule="evenodd" clip-rule="evenodd" d="M23.8599 37.7278C25.1106 38.5606 31.5328 40.575 33.3397 40.9057L33.6314 40.8907C33.6464 40.8576 33.6645 40.7795 33.6705 40.7975C33.7637 41.038 33.7366 40.6532 33.7486 40.6261C33.7607 40.5961 33.8419 40.3826 33.8419 40.3826C33.9411 40.0789 33.92 40.0759 33.9832 39.7362L36.3043 28.9183C37.2183 25.3495 37.8918 20.5689 38.8178 16.8107L41.0547 5.86355C41.2021 4.90745 41.7523 2.97419 41.8004 2.21051C41.4576 2.00906 29.828 -0.0414536 29.5755 0.000639088C28.9531 0.111884 29.3439 0.424573 29.1455 1.4348C29.0673 1.82566 28.893 2.45404 28.8388 2.86294C28.451 5.81244 28.0782 9.72707 27.558 12.5322C27.3686 13.5485 27.2994 14.7181 27.1371 15.6982L23.8599 37.7278V37.7278Z" fill="#FEC800"/>
<path fill-rule="evenodd" clip-rule="evenodd" d="M32.3472 40.7374C32.7651 41.1162 32.7681 40.8666 33.3875 41.023C33.7813 41.1222 33.2882 41.0801 33.8956 41.1763C34.076 41.2034 34.3766 41.2064 34.5691 41.2154C36.2107 41.2966 39.4638 42.2497 42.1187 41.9911L45.0261 35.0969C45.6545 33.5816 53.0929 15.0427 53.3184 14.0957L42.1037 10.0758C41.8511 10.3404 37.6388 23.8882 37.1969 25.3825L32.6448 40.3886C32.4374 40.8937 32.6959 40.6141 32.3472 40.7374V40.7374Z" fill="#DC291A"/>
<path fill-rule="evenodd" clip-rule="evenodd" d="M16.0727 36.8468C16.5206 36.943 16.3643 36.9521 16.7281 36.8438C17.0378 36.7506 16.5477 36.7145 17.3415 36.6875C17.6962 36.6724 18.4689 36.6514 18.7967 36.6965C19.0733 36.7296 19.5904 36.943 19.8941 37.0453L21.3673 37.6947C21.3914 37.7067 21.4184 37.7248 21.4455 37.7338C22.0649 37.9863 21.5868 37.5203 22.594 38.1637L24.0522 38.8372C24.84 39.18 24.6987 39.2672 25.3782 39.2792C25.5135 36.4139 26.193 10.6712 25.8953 9.92552C25.2038 9.60681 16.0967 9.96761 14.5122 9.97362C14.4761 11.2995 15.1105 21.4198 15.2488 23.4523C15.3992 25.6892 15.5224 27.9322 15.6277 30.139L16.0727 36.8468V36.8468Z" fill="#00A859"/>
<path fill-rule="evenodd" clip-rule="evenodd" d="M10.9944 23.1396C3.21622 25.0128 -3.25704 27.0002 7.41046 32.6286C18.3546 38.4073 27.0738 39.4957 39.0221 41.3778C41.8934 41.6484 62.1611 43.0375 58.5982 35.2894L57.7022 33.6538C59.1364 34.8504 60.6908 36.0892 60.0655 38.296C57.8225 46.1794 35.7659 43.8673 29.5753 43.0255C22.1369 42.0152 3.42969 36.4379 0.374959 29.0687C-2.08747 23.1366 8.28238 23.1096 10.9944 23.1396Z" fill="#00AFEF"/>
<path fill-rule="evenodd" clip-rule="evenodd" d="M12.7534 32.6736C22.5069 36.8588 46.3765 45.4007 56.7223 39.3724C60.7993 37.0001 57.522 34.0597 55.2129 31.7325C58.6946 34.0056 61.9117 37.3188 57.3206 40.3435C46.7102 47.3369 22.0379 39.2551 11.665 35.097C10.9945 34.7963 10.6969 34.0086 10.9975 33.3411C11.2982 32.6706 12.0829 32.373 12.7534 32.6736V32.6736Z" fill="#3E4095"/>
<path fill-rule="evenodd" clip-rule="evenodd" d="M23.8599 37.7278C25.1106 38.5606 31.5328 40.575 33.3397 40.9057L33.6314 40.8907C33.6464 40.8576 33.6645 40.7795 33.6705 40.7975C33.7637 41.038 33.7366 40.6532 33.7486 40.6261C33.7607 40.5961 33.8419 40.3826 33.8419 40.3826C33.9411 40.0789 33.92 40.0759 33.9832 39.7362L36.3043 28.9183C37.2183 25.3495 37.8918 20.5689 38.8178 16.8107L41.0547 5.86355C41.2021 4.90745 41.7523 2.97419 41.8004 2.21051C41.4576 2.00906 29.828 -0.0414536 29.5755 0.000639088C28.9531 0.111884 29.3439 0.424573 29.1455 1.4348C29.0673 1.82566 28.893 2.45404 28.8388 2.86294C28.451 5.81244 28.0782 9.72707 27.558 12.5322C27.3686 13.5485 27.2994 14.7181 27.1371 15.6982L23.8599 37.7278V37.7278Z" fill="#FEC800"/>
<path fill-rule="evenodd" clip-rule="evenodd" d="M32.3472 40.7374C32.7651 41.1162 32.7681 40.8666 33.3875 41.023C33.7813 41.1222 33.2882 41.0801 33.8956 41.1763C34.076 41.2034 34.3766 41.2064 34.5691 41.2154C36.2107 41.2966 39.4638 42.2497 42.1187 41.9911L45.0261 35.0969C45.6545 33.5816 53.0929 15.0427 53.3184 14.0957L42.1037 10.0758C41.8511 10.3404 37.6388 23.8882 37.1969 25.3825L32.6448 40.3886C32.4374 40.8937 32.6959 40.6141 32.3472 40.7374V40.7374Z" fill="#DC291A"/>
<path fill-rule="evenodd" clip-rule="evenodd" d="M16.0727 36.8468C16.5206 36.943 16.3643 36.9521 16.7281 36.8438C17.0378 36.7506 16.5477 36.7145 17.3415 36.6875C17.6962 36.6724 18.4689 36.6514 18.7967 36.6965C19.0733 36.7296 19.5904 36.943 19.8941 37.0453L21.3673 37.6947C21.3914 37.7067 21.4184 37.7248 21.4455 37.7338C22.0649 37.9863 21.5868 37.5203 22.594 38.1637L24.0522 38.8372C24.84 39.18 24.6987 39.2672 25.3782 39.2792C25.5135 36.4139 26.193 10.6712 25.8953 9.92552C25.2038 9.60681 16.0967 9.96761 14.5122 9.97362C14.4761 11.2995 15.1105 21.4198 15.2488 23.4523C15.3992 25.6892 15.5224 27.9322 15.6277 30.139L16.0727 36.8468V36.8468Z" fill="#00A859"/>
<path fill-rule="evenodd" clip-rule="evenodd" d="M10.9944 23.1396C3.21622 25.0128 -3.25704 27.0002 7.41046 32.6286C18.3546 38.4073 27.0738 39.4957 39.0221 41.3778C41.8934 41.6484 62.1611 43.0375 58.5982 35.2894L57.7022 33.6538C59.1364 34.8504 60.6908 36.0892 60.0655 38.296C57.8225 46.1794 35.7659 43.8673 29.5753 43.0255C22.1369 42.0152 3.42969 36.4379 0.374959 29.0687C-2.08747 23.1366 8.28238 23.1096 10.9944 23.1396Z" fill="#00AFEF"/>
<path fill-rule="evenodd" clip-rule="evenodd" d="M12.7534 32.6736C22.5069 36.8588 46.3765 45.4007 56.7223 39.3724C60.7993 37.0001 57.522 34.0597 55.2129 31.7325C58.6946 34.0056 61.9117 37.3188 57.3206 40.3435C46.7102 47.3369 22.0379 39.2551 11.665 35.097C10.9945 34.7963 10.6969 34.0086 10.9975 33.3411C11.2982 32.6706 12.0829 32.373 12.7534 32.6736V32.6736Z" fill="#3E4095"/>
<path d="M69.9244 33.926L72.3626 39.1483H71.8008L70.9832 37.4304H68.7214L67.9075 39.1483H67.3276L69.7947 33.926H69.9244ZM69.8595 35.0209L68.9592 36.9225H70.7527L69.8595 35.0209Z" fill="white"/>
<path d="M80.892 34.8013L80.4851 35.1831C80.1933 34.8985 79.8728 34.6788 79.527 34.5312C79.1777 34.3835 78.8391 34.3115 78.5078 34.3115C78.0972 34.3115 77.7046 34.4123 77.3337 34.6104C76.9591 34.8121 76.671 35.0858 76.4693 35.4316C76.264 35.7773 76.1596 36.1411 76.1596 36.5264C76.1596 36.919 76.2676 37.29 76.4765 37.6465C76.689 37.9995 76.9807 38.2768 77.3517 38.4821C77.7263 38.6838 78.1332 38.7846 78.5798 38.7846C79.1165 38.7846 79.5739 38.6334 79.9448 38.3308C80.3158 38.0283 80.5391 37.6357 80.6075 37.1567H78.94V36.6453H81.1982C81.191 37.4521 80.9533 38.0931 80.4779 38.5685C79.9988 39.044 79.365 39.2817 78.5654 39.2817C77.5966 39.2817 76.8331 38.9503 76.2676 38.2912C75.8318 37.787 75.6157 37.1999 75.6157 36.5336C75.6157 36.0402 75.7418 35.5792 75.9903 35.1542C76.2388 34.7257 76.5809 34.3943 77.0167 34.153C77.4489 33.9153 77.9423 33.7928 78.4898 33.7928C78.9328 33.7928 79.3506 33.8721 79.7431 34.0342C80.1357 34.1926 80.5175 34.4483 80.892 34.8013V34.8013Z" fill="white"/>
<path d="M84.8667 33.926H87.856V34.4338H85.3889V36.0726H87.8344V36.5804H85.3889V38.6405H87.8344V39.1483H84.8667V33.926Z" fill="white"/>
<path d="M91.4399 39.1483V33.926H91.5516L95.0271 37.9202V33.926H95.553V39.1483H95.4341L91.9802 35.1866V39.1483H91.4399Z" fill="white"/>
<path d="M104.355 34.8877L103.945 35.2047C103.718 34.9093 103.444 34.686 103.123 34.5312C102.806 34.3799 102.457 34.3043 102.075 34.3043C101.661 34.3043 101.276 34.4051 100.919 34.6032C100.563 34.8049 100.289 35.0714 100.094 35.41C99.8999 35.7485 99.7991 36.1267 99.7991 36.5481C99.7991 37.1855 100.019 37.7186 100.455 38.1436C100.894 38.5721 101.441 38.7846 102.108 38.7846C102.839 38.7846 103.451 38.5001 103.945 37.9275L104.355 38.2408C104.096 38.5721 103.772 38.8279 103.383 39.0079C102.99 39.188 102.558 39.2817 102.075 39.2817C101.16 39.2817 100.44 38.9755 99.9107 38.3669C99.4713 37.8554 99.248 37.2324 99.248 36.5048C99.248 35.7413 99.5146 35.1002 100.051 34.578C100.588 34.0558 101.261 33.7928 102.068 33.7928C102.558 33.7928 102.997 33.8901 103.39 34.081C103.782 34.2755 104.107 34.542 104.355 34.8877V34.8877Z" fill="white"/>
<path d="M108.004 33.926H108.53V39.1483H108.004V33.926Z" fill="white"/>
<path d="M114.534 33.926L116.972 39.1483H116.41L115.593 37.4304H113.331L112.517 39.1483H111.937L114.404 33.926H114.534V33.926ZM114.469 35.0209L113.569 36.9225H115.362L114.469 35.0209Z" fill="white"/>
<path d="M124.99 33.926H125.516V39.1483H124.99V33.926Z" fill="white"/>
<path d="M129.386 39.1483V33.926H129.501L132.973 37.9202V33.926H133.499V39.1483H133.38L129.926 35.1866V39.1483H129.386Z" fill="white"/>
<path d="M137.209 39.1483L137.933 33.926H138.041L140.169 38.2119L142.28 33.926H142.359L143.112 39.1483H142.604L142.082 35.4099L140.231 39.1483H140.094L138.225 35.3811L137.724 39.1483H137.209Z" fill="white"/>
<path d="M149.289 33.7928C150.077 33.7928 150.74 34.0594 151.273 34.5852C151.806 35.1146 152.073 35.7629 152.073 36.5336C152.073 37.3008 151.806 37.9491 151.273 38.4821C150.744 39.0151 150.095 39.2817 149.328 39.2817C148.554 39.2817 147.902 39.0151 147.369 38.4857C146.836 37.9563 146.569 37.3116 146.569 36.5589C146.569 36.0582 146.692 35.5936 146.933 35.165C147.178 34.7365 147.509 34.4015 147.927 34.1566C148.345 33.9153 148.799 33.7928 149.289 33.7928V33.7928ZM149.31 34.3043C148.925 34.3043 148.557 34.4051 148.212 34.6032C147.866 34.8049 147.596 35.075 147.401 35.4172C147.207 35.7593 147.11 36.1375 147.11 36.5589C147.11 37.1783 147.322 37.7042 147.754 38.1291C148.183 38.5577 148.705 38.7702 149.31 38.7702C149.717 38.7702 150.092 38.673 150.434 38.4749C150.78 38.2804 151.05 38.0103 151.244 37.6681C151.435 37.3296 151.532 36.9514 151.532 36.5336C151.532 36.1195 151.435 35.7449 151.244 35.41C151.05 35.075 150.776 34.8049 150.427 34.6032C150.077 34.4051 149.703 34.3043 149.31 34.3043V34.3043Z" fill="white"/>
<path d="M155.808 33.926H156.838C157.252 33.926 157.573 33.9728 157.793 34.0701C158.016 34.1709 158.192 34.3222 158.322 34.5239C158.452 34.7256 158.516 34.9525 158.516 35.201C158.516 35.4351 158.459 35.644 158.347 35.8349C158.232 36.0257 158.066 36.1806 157.85 36.2995C158.12 36.3895 158.329 36.4976 158.473 36.6236C158.621 36.7461 158.733 36.8973 158.815 37.0738C158.895 37.2503 158.938 37.4412 158.938 37.6501C158.938 38.0678 158.787 38.4244 158.477 38.7125C158.171 39.0043 157.76 39.1483 157.245 39.1483H155.808V33.926V33.926ZM156.32 34.4338V36.1086H156.618C156.982 36.1086 157.249 36.0726 157.422 36.0077C157.591 35.9393 157.728 35.8313 157.825 35.6872C157.926 35.5395 157.976 35.3775 157.976 35.201C157.976 34.9633 157.893 34.776 157.728 34.6391C157.558 34.5023 157.292 34.4338 156.925 34.4338H156.32V34.4338ZM156.32 36.6308V38.6405H156.968C157.35 38.6405 157.63 38.6009 157.807 38.5288C157.987 38.4532 158.128 38.3344 158.236 38.1759C158.344 38.0174 158.398 37.8445 158.398 37.6609C158.398 37.4268 158.322 37.2251 158.171 37.0522C158.019 36.8793 157.811 36.7605 157.544 36.6956C157.368 36.6524 157.058 36.6308 156.615 36.6308H156.32V36.6308Z" fill="white"/>
<path d="M162.572 33.926H163.098V39.1483H162.572V33.926Z" fill="white"/>
<path d="M166.962 33.926H167.488V38.6405H169.502V39.1483H166.962V33.926Z" fill="white"/>
<path d="M172.922 33.926H173.448V39.1483H172.922V33.926Z" fill="white"/>
<path d="M179.452 33.926L181.89 39.1483H181.329L180.511 37.4304H178.249L177.435 39.1483H176.855L179.323 33.926H179.452V33.926ZM179.387 35.0209L178.487 36.9225H180.281L179.387 35.0209Z" fill="white"/>
<path d="M185.399 33.926H186.44C187.023 33.926 187.416 33.9476 187.621 33.9945C187.934 34.0665 188.187 34.2178 188.381 34.4519C188.576 34.686 188.673 34.9741 188.673 35.3126C188.673 35.5972 188.604 35.8457 188.471 36.0618C188.338 36.2779 188.147 36.4399 187.895 36.5516C187.646 36.6596 187.304 36.7173 186.865 36.7173L188.745 39.1483H188.104L186.224 36.7173H185.921V39.1483H185.399V33.926V33.926ZM185.921 34.4338V36.2094L186.825 36.2166C187.175 36.2166 187.434 36.1842 187.6 36.1158C187.769 36.051 187.898 35.9465 187.992 35.7988C188.086 35.6548 188.133 35.4927 188.133 35.309C188.133 35.1362 188.086 34.9777 187.992 34.8336C187.895 34.6896 187.772 34.5887 187.618 34.5275C187.463 34.4627 187.207 34.4338 186.847 34.4338H185.921V34.4338Z" fill="white"/>
<path d="M192.386 33.926H192.912V39.1483H192.386V33.926Z" fill="white"/>
<path d="M198.916 33.926L201.354 39.1483H200.792L199.974 37.4304H197.713L196.899 39.1483H196.319L198.786 33.926H198.916V33.926ZM198.851 35.0209L197.95 36.9225H199.744L198.851 35.0209Z" fill="white"/>
<path d="M70.0371 8.88416H80.9427V10.739H71.9459V16.7104H80.8635V18.5688H71.9459V26.0781H80.8635V27.9365H70.0371V8.88416Z" fill="white"/>
<path d="M84.436 8.88416H86.3485V26.0781H93.6993V27.9365H84.436V8.88416Z" fill="white"/>
<path d="M104.164 8.88416H107.964C110.139 8.88416 111.612 8.97419 112.372 9.16508C113.46 9.4352 114.349 9.98264 115.041 10.8182C115.732 11.6502 116.078 12.6982 116.078 13.9588C116.078 15.2301 115.743 16.2746 115.066 17.0994C114.393 17.9241 113.463 18.4752 112.282 18.7633C111.418 18.9722 109.804 19.073 107.434 19.073H106.073V27.9365H104.164V8.88416V8.88416ZM106.073 10.739V17.2146L109.304 17.2542C110.607 17.2542 111.562 17.1354 112.17 16.8977C112.775 16.66 113.251 16.2782 113.597 15.7488C113.942 15.2157 114.115 14.6179 114.115 13.966C114.115 13.3285 113.942 12.7378 113.597 12.2084C113.251 11.679 112.793 11.3008 112.224 11.0775C111.659 10.8506 110.737 10.739 109.444 10.739H106.073V10.739Z" fill="white"/>
<path d="M129.153 8.40527C132.038 8.40527 134.451 9.3705 136.396 11.2937C138.337 13.217 139.309 15.5868 139.309 18.3997C139.309 21.1909 138.341 23.5571 136.403 25.502C134.462 27.4432 132.099 28.4157 129.308 28.4157C126.488 28.4157 124.104 27.4468 122.159 25.5128C120.218 23.5823 119.245 21.2413 119.245 18.4933C119.245 16.6637 119.688 14.9674 120.574 13.4043C121.456 11.8412 122.663 10.6166 124.194 9.73066C125.721 8.84827 127.374 8.40527 129.153 8.40527V8.40527ZM129.236 10.2637C127.831 10.2637 126.495 10.6311 125.231 11.3658C123.97 12.0969 122.984 13.0837 122.27 14.3263C121.565 15.576 121.208 16.959 121.208 18.4897C121.208 20.7515 121.993 22.6603 123.563 24.2162C125.134 25.7793 127.025 26.5573 129.236 26.5573C130.72 26.5573 132.085 26.2007 133.342 25.484C134.602 24.7673 135.585 23.784 136.288 22.5415C136.99 21.2989 137.347 19.9195 137.347 18.3961C137.347 16.8834 136.99 15.5184 136.288 14.2975C135.585 13.0765 134.588 12.0969 133.313 11.3658C132.034 10.6311 130.677 10.2637 129.236 10.2637V10.2637Z" fill="white"/>
<path d="M143.439 8.88416H147.243C149.36 8.88416 150.797 8.97059 151.55 9.14347C152.688 9.39918 153.607 9.95382 154.313 10.8074C155.026 11.6574 155.379 12.7054 155.379 13.948C155.379 14.9816 155.137 15.8928 154.648 16.6744C154.158 17.4631 153.459 18.0574 152.548 18.4571C151.644 18.8605 150.387 19.0658 148.784 19.073L155.645 27.9365H153.304L146.447 19.073H145.348V27.9365H143.439V8.88416V8.88416ZM145.348 10.739V17.2146L148.64 17.2434C149.919 17.2434 150.859 17.1246 151.471 16.8797C152.08 16.6347 152.559 16.253 152.904 15.7199C153.243 15.1905 153.416 14.5963 153.416 13.9372C153.416 13.2997 153.243 12.7162 152.894 12.194C152.548 11.6718 152.094 11.3008 151.529 11.0775C150.967 10.8506 150.027 10.739 148.719 10.739H145.348Z" fill="white"/>
<path d="M157.756 10.739V8.88416H168.182V10.739H163.936V27.9365H162.002V10.739H157.756Z" fill="white"/>
<path d="M178.941 8.88416L187.83 27.9365H185.784L182.806 21.6734H174.547L171.59 27.9365H169.465L178.462 8.88416H178.941V8.88416ZM178.7 12.8819L175.422 19.8149H181.966L178.7 12.8819V12.8819Z" fill="white"/>
<path d="M190.967 8.88416H192.876V26.0781H200.226V27.9365H190.967V8.88416Z" fill="white"/>
<path d="M69.9244 33.926L72.3626 39.1483H71.8008L70.9832 37.4304H68.7214L67.9075 39.1483H67.3276L69.7947 33.926H69.9244ZM69.8595 35.0209L68.9592 36.9225H70.7527L69.8595 35.0209Z" fill="#4F4F4F"/>
<path d="M80.892 34.8013L80.4851 35.1831C80.1933 34.8985 79.8728 34.6788 79.527 34.5312C79.1777 34.3835 78.8391 34.3115 78.5078 34.3115C78.0972 34.3115 77.7046 34.4123 77.3337 34.6104C76.9591 34.8121 76.671 35.0858 76.4693 35.4316C76.264 35.7773 76.1596 36.1411 76.1596 36.5264C76.1596 36.919 76.2676 37.29 76.4765 37.6465C76.689 37.9995 76.9807 38.2768 77.3517 38.4821C77.7263 38.6838 78.1332 38.7846 78.5798 38.7846C79.1165 38.7846 79.5739 38.6334 79.9448 38.3308C80.3158 38.0283 80.5391 37.6357 80.6075 37.1567H78.94V36.6453H81.1982C81.191 37.4521 80.9533 38.0931 80.4779 38.5685C79.9988 39.044 79.365 39.2817 78.5654 39.2817C77.5966 39.2817 76.8331 38.9503 76.2676 38.2912C75.8318 37.787 75.6157 37.1999 75.6157 36.5336C75.6157 36.0402 75.7418 35.5792 75.9903 35.1542C76.2388 34.7257 76.5809 34.3943 77.0167 34.153C77.4489 33.9153 77.9423 33.7928 78.4898 33.7928C78.9328 33.7928 79.3506 33.8721 79.7431 34.0342C80.1357 34.1926 80.5175 34.4483 80.892 34.8013V34.8013Z" fill="#4F4F4F"/>
<path d="M84.8667 33.926H87.856V34.4338H85.3889V36.0726H87.8344V36.5804H85.3889V38.6405H87.8344V39.1483H84.8667V33.926Z" fill="#4F4F4F"/>
<path d="M91.4399 39.1483V33.926H91.5516L95.0271 37.9202V33.926H95.553V39.1483H95.4341L91.9802 35.1866V39.1483H91.4399Z" fill="#4F4F4F"/>
<path d="M104.355 34.8877L103.945 35.2047C103.718 34.9093 103.444 34.686 103.123 34.5312C102.806 34.3799 102.457 34.3043 102.075 34.3043C101.661 34.3043 101.276 34.4051 100.919 34.6032C100.563 34.8049 100.289 35.0714 100.094 35.41C99.8999 35.7485 99.7991 36.1267 99.7991 36.5481C99.7991 37.1855 100.019 37.7186 100.455 38.1436C100.894 38.5721 101.441 38.7846 102.108 38.7846C102.839 38.7846 103.451 38.5001 103.945 37.9275L104.355 38.2408C104.096 38.5721 103.772 38.8279 103.383 39.0079C102.99 39.188 102.558 39.2817 102.075 39.2817C101.16 39.2817 100.44 38.9755 99.9107 38.3669C99.4713 37.8554 99.248 37.2324 99.248 36.5048C99.248 35.7413 99.5146 35.1002 100.051 34.578C100.588 34.0558 101.261 33.7928 102.068 33.7928C102.558 33.7928 102.997 33.8901 103.39 34.081C103.782 34.2755 104.107 34.542 104.355 34.8877V34.8877Z" fill="#4F4F4F"/>
<path d="M108.004 33.926H108.53V39.1483H108.004V33.926Z" fill="#4F4F4F"/>
<path d="M114.534 33.926L116.972 39.1483H116.41L115.593 37.4304H113.331L112.517 39.1483H111.937L114.404 33.926H114.534V33.926ZM114.469 35.0209L113.569 36.9225H115.362L114.469 35.0209Z" fill="#4F4F4F"/>
<path d="M124.99 33.926H125.516V39.1483H124.99V33.926Z" fill="#4F4F4F"/>
<path d="M129.386 39.1483V33.926H129.501L132.973 37.9202V33.926H133.499V39.1483H133.38L129.926 35.1866V39.1483H129.386Z" fill="#4F4F4F"/>
<path d="M137.209 39.1483L137.933 33.926H138.041L140.169 38.2119L142.28 33.926H142.359L143.112 39.1483H142.604L142.082 35.4099L140.231 39.1483H140.094L138.225 35.3811L137.724 39.1483H137.209Z" fill="#4F4F4F"/>
<path d="M149.289 33.7928C150.077 33.7928 150.74 34.0594 151.273 34.5852C151.806 35.1146 152.073 35.7629 152.073 36.5336C152.073 37.3008 151.806 37.9491 151.273 38.4821C150.744 39.0151 150.095 39.2817 149.328 39.2817C148.554 39.2817 147.902 39.0151 147.369 38.4857C146.836 37.9563 146.569 37.3116 146.569 36.5589C146.569 36.0582 146.692 35.5936 146.933 35.165C147.178 34.7365 147.509 34.4015 147.927 34.1566C148.345 33.9153 148.799 33.7928 149.289 33.7928V33.7928ZM149.31 34.3043C148.925 34.3043 148.557 34.4051 148.212 34.6032C147.866 34.8049 147.596 35.075 147.401 35.4172C147.207 35.7593 147.11 36.1375 147.11 36.5589C147.11 37.1783 147.322 37.7042 147.754 38.1291C148.183 38.5577 148.705 38.7702 149.31 38.7702C149.717 38.7702 150.092 38.673 150.434 38.4749C150.78 38.2804 151.05 38.0103 151.244 37.6681C151.435 37.3296 151.532 36.9514 151.532 36.5336C151.532 36.1195 151.435 35.7449 151.244 35.41C151.05 35.075 150.776 34.8049 150.427 34.6032C150.077 34.4051 149.703 34.3043 149.31 34.3043V34.3043Z" fill="#4F4F4F"/>
<path d="M155.808 33.926H156.838C157.252 33.926 157.573 33.9728 157.793 34.0701C158.016 34.1709 158.192 34.3222 158.322 34.5239C158.452 34.7256 158.516 34.9525 158.516 35.201C158.516 35.4351 158.459 35.644 158.347 35.8349C158.232 36.0257 158.066 36.1806 157.85 36.2995C158.12 36.3895 158.329 36.4976 158.473 36.6236C158.621 36.7461 158.733 36.8973 158.815 37.0738C158.895 37.2503 158.938 37.4412 158.938 37.6501C158.938 38.0678 158.787 38.4244 158.477 38.7125C158.171 39.0043 157.76 39.1483 157.245 39.1483H155.808V33.926V33.926ZM156.32 34.4338V36.1086H156.618C156.982 36.1086 157.249 36.0726 157.422 36.0077C157.591 35.9393 157.728 35.8313 157.825 35.6872C157.926 35.5395 157.976 35.3775 157.976 35.201C157.976 34.9633 157.893 34.776 157.728 34.6391C157.558 34.5023 157.292 34.4338 156.925 34.4338H156.32V34.4338ZM156.32 36.6308V38.6405H156.968C157.35 38.6405 157.63 38.6009 157.807 38.5288C157.987 38.4532 158.128 38.3344 158.236 38.1759C158.344 38.0174 158.398 37.8445 158.398 37.6609C158.398 37.4268 158.322 37.2251 158.171 37.0522C158.019 36.8793 157.811 36.7605 157.544 36.6956C157.368 36.6524 157.058 36.6308 156.615 36.6308H156.32V36.6308Z" fill="#4F4F4F"/>
<path d="M162.572 33.926H163.098V39.1483H162.572V33.926Z" fill="#4F4F4F"/>
<path d="M166.962 33.926H167.488V38.6405H169.502V39.1483H166.962V33.926Z" fill="#4F4F4F"/>
<path d="M172.922 33.926H173.448V39.1483H172.922V33.926Z" fill="#4F4F4F"/>
<path d="M179.452 33.926L181.89 39.1483H181.329L180.511 37.4304H178.249L177.435 39.1483H176.855L179.323 33.926H179.452V33.926ZM179.387 35.0209L178.487 36.9225H180.281L179.387 35.0209Z" fill="#4F4F4F"/>
<path d="M185.399 33.926H186.44C187.023 33.926 187.416 33.9476 187.621 33.9945C187.934 34.0665 188.187 34.2178 188.381 34.4519C188.576 34.686 188.673 34.9741 188.673 35.3126C188.673 35.5972 188.604 35.8457 188.471 36.0618C188.338 36.2779 188.147 36.4399 187.895 36.5516C187.646 36.6596 187.304 36.7173 186.865 36.7173L188.745 39.1483H188.104L186.224 36.7173H185.921V39.1483H185.399V33.926V33.926ZM185.921 34.4338V36.2094L186.825 36.2166C187.175 36.2166 187.434 36.1842 187.6 36.1158C187.769 36.051 187.898 35.9465 187.992 35.7988C188.086 35.6548 188.133 35.4927 188.133 35.309C188.133 35.1362 188.086 34.9777 187.992 34.8336C187.895 34.6896 187.772 34.5887 187.618 34.5275C187.463 34.4627 187.207 34.4338 186.847 34.4338H185.921V34.4338Z" fill="#4F4F4F"/>
<path d="M192.386 33.926H192.912V39.1483H192.386V33.926Z" fill="#4F4F4F"/>
<path d="M198.916 33.926L201.354 39.1483H200.792L199.974 37.4304H197.713L196.899 39.1483H196.319L198.786 33.926H198.916V33.926ZM198.851 35.0209L197.95 36.9225H199.744L198.851 35.0209Z" fill="#4F4F4F"/>
<path d="M70.0371 8.88416H80.9427V10.739H71.9459V16.7104H80.8635V18.5688H71.9459V26.0781H80.8635V27.9365H70.0371V8.88416Z" fill="#4F4F4F"/>
<path d="M84.436 8.88416H86.3485V26.0781H93.6993V27.9365H84.436V8.88416Z" fill="#4F4F4F"/>
<path d="M104.164 8.88416H107.964C110.139 8.88416 111.612 8.97419 112.372 9.16508C113.46 9.4352 114.349 9.98264 115.041 10.8182C115.732 11.6502 116.078 12.6982 116.078 13.9588C116.078 15.2301 115.743 16.2746 115.066 17.0994C114.393 17.9241 113.463 18.4752 112.282 18.7633C111.418 18.9722 109.804 19.073 107.434 19.073H106.073V27.9365H104.164V8.88416V8.88416ZM106.073 10.739V17.2146L109.304 17.2542C110.607 17.2542 111.562 17.1354 112.17 16.8977C112.775 16.66 113.251 16.2782 113.597 15.7488C113.942 15.2157 114.115 14.6179 114.115 13.966C114.115 13.3285 113.942 12.7378 113.597 12.2084C113.251 11.679 112.793 11.3008 112.224 11.0775C111.659 10.8506 110.737 10.739 109.444 10.739H106.073V10.739Z" fill="#4F4F4F"/>
<path d="M129.153 8.40527C132.038 8.40527 134.451 9.3705 136.396 11.2937C138.337 13.217 139.309 15.5868 139.309 18.3997C139.309 21.1909 138.341 23.5571 136.403 25.502C134.462 27.4432 132.099 28.4157 129.308 28.4157C126.488 28.4157 124.104 27.4468 122.159 25.5128C120.218 23.5823 119.245 21.2413 119.245 18.4933C119.245 16.6637 119.688 14.9674 120.574 13.4043C121.456 11.8412 122.663 10.6166 124.194 9.73066C125.721 8.84827 127.374 8.40527 129.153 8.40527V8.40527ZM129.236 10.2637C127.831 10.2637 126.495 10.6311 125.231 11.3658C123.97 12.0969 122.984 13.0837 122.27 14.3263C121.565 15.576 121.208 16.959 121.208 18.4897C121.208 20.7515 121.993 22.6603 123.563 24.2162C125.134 25.7793 127.025 26.5573 129.236 26.5573C130.72 26.5573 132.085 26.2007 133.342 25.484C134.602 24.7673 135.585 23.784 136.288 22.5415C136.99 21.2989 137.347 19.9195 137.347 18.3961C137.347 16.8834 136.99 15.5184 136.288 14.2975C135.585 13.0765 134.588 12.0969 133.313 11.3658C132.034 10.6311 130.677 10.2637 129.236 10.2637V10.2637Z" fill="#4F4F4F"/>
<path d="M143.439 8.88416H147.243C149.36 8.88416 150.797 8.97059 151.55 9.14347C152.688 9.39918 153.607 9.95382 154.313 10.8074C155.026 11.6574 155.379 12.7054 155.379 13.948C155.379 14.9816 155.137 15.8928 154.648 16.6744C154.158 17.4631 153.459 18.0574 152.548 18.4571C151.644 18.8605 150.387 19.0658 148.784 19.073L155.645 27.9365H153.304L146.447 19.073H145.348V27.9365H143.439V8.88416V8.88416ZM145.348 10.739V17.2146L148.64 17.2434C149.919 17.2434 150.859 17.1246 151.471 16.8797C152.08 16.6347 152.559 16.253 152.904 15.7199C153.243 15.1905 153.416 14.5963 153.416 13.9372C153.416 13.2997 153.243 12.7162 152.894 12.194C152.548 11.6718 152.094 11.3008 151.529 11.0775C150.967 10.8506 150.027 10.739 148.719 10.739H145.348Z" fill="#4F4F4F"/>
<path d="M157.756 10.739V8.88416H168.182V10.739H163.936V27.9365H162.002V10.739H157.756Z" fill="#4F4F4F"/>
<path d="M178.941 8.88416L187.83 27.9365H185.784L182.806 21.6734H174.547L171.59 27.9365H169.465L178.462 8.88416H178.941V8.88416ZM178.7 12.8819L175.422 19.8149H181.966L178.7 12.8819V12.8819Z" fill="#4F4F4F"/>
<path d="M190.967 8.88416H192.876V26.0781H200.226V27.9365H190.967V8.88416Z" fill="#4F4F4F"/>
</svg>
